<svg width="1509" height="140" viewBox="0 0 1509 140" fill="none" xmlns="http://www.w3.org/2000/svg">
<path d="M287.451 69.6339L173.138 0.0389404L150.509 58.7621L54.0338 0.0389404L0.246094 139.618L142.096 80.5446L119.35 139.618L287.451 69.6339Z" fill="black"/>
<path d="M554.131 32.8491C554.131 35.1092 553.936 37.2524 553.547 39.2397H348.873L355.105 0H505.329C533.255 0 554.092 8.80653 554.092 32.8491H554.131Z" fill="black"/>
<path d="M817.382 39.2786H561.18L567.372 0.0389404H805.931L817.382 39.2786Z" fill="black"/>
<path d="M944.704 39.2786L950.352 3.6239L930.021 39.2786H857.109L878.881 0.0389404H1028.01L1061.51 39.2786H944.704Z" fill="black"/>
<path d="M1161.73 0.0389404L1155.45 39.2786H1085.97L1092.12 0.0389404H1161.73Z" fill="black"/>
<path d="M1508.83 0.0389404L1502.95 39.0838H1162.08L1168.27 0.0389404H1508.83Z" fill="black"/>
<path d="M543.187 106.769L540.188 125.551C539.058 131.552 539.448 135.176 540.188 137.514L539.876 139.618H468.562C468.211 138.683 468.211 136.969 468.562 134.163L471.21 118.42C473.664 103.613 467.627 94.9624 448.114 94.9624H409.672L402.583 139.618H332.982L347.199 49.9166H549.613C542.914 61.6067 529.555 68.2311 516.585 70.4132C535.358 75.4789 546.186 88.6108 543.226 106.808L543.187 106.769Z" fill="black"/>
<path d="M621.979 88.2211L620.11 100.223H715.923L709.73 139.618H545.796L545.952 138.488C545.835 138.216 545.718 137.865 545.602 137.514L559.506 49.9166H722.076L715.923 88.2211H621.979Z" fill="black"/>
<path d="M545.99 138.488L545.834 139.618H545.289L545.601 137.514C545.718 137.865 545.834 138.216 545.951 138.488H545.99Z" fill="black"/>
<path d="M923.945 49.9166L872.728 139.618H773.137L744.549 49.9166H820.498L831.092 86.1169L851.189 49.9166H923.945Z" fill="black"/>
<path d="M1153.78 49.9166L1139.56 139.618H1069.85L1009.44 69.8287L998.337 139.618H928.775L943.03 49.9166H1070.63L1082.19 63.4382L1084.3 49.9166H1153.78Z" fill="black"/>
<path d="M1222.87 88.2211L1221 100.223H1316.82L1310.62 139.618H1146.18L1160.4 49.9166H1323.01L1316.82 88.2211H1222.87Z" fill="black"/>
<path d="M1442.54 49.9166L1428.01 139.618H1358.45L1372.94 49.9166H1442.54Z" fill="black"/>
</svg>
