<svg width="178" height="28" viewBox="0 0 178 28" fill="none" xmlns="http://www.w3.org/2000/svg">
<g clip-path="url(#clip0_8_20)">
<path d="M41.6 29H37.28L42.88 1.08H53.24C55.8 1.08 57.6933 1.72 58.92 3C60.1733 4.25333 60.8 5.92 60.8 8C60.8 9.06667 60.64 10.0933 60.32 11.08C60 12.04 59.5333 12.9333 58.92 13.76C58.3067 14.56 57.56 15.2667 56.68 15.88C55.8 16.4667 54.8 16.8933 53.68 17.16L57.44 29H52.8L49.44 17.68H43.88L41.6 29ZM51.4 14C52.5467 14 53.4933 13.7067 54.24 13.12C55.0133 12.5067 55.5467 11.6 55.84 10.4C56 9.68 56.12 9.12 56.2 8.72C56.28 8.29333 56.32 7.94667 56.32 7.68C56.32 6.88 56.0667 6.22667 55.56 5.72C55.08 5.18666 54.24 4.92 53.04 4.92H46.44L44.64 14H51.4ZM61.5878 29L67.1878 1.08H84.2678L83.4678 4.92H70.7478L69.1478 13H80.5078L79.7478 16.84H68.3878L66.7078 25.16H79.9878L79.2278 29H61.5878ZM89.245 29L85.965 1.08H90.325L91.605 13.68L92.525 24.44H92.725L97.685 14.12L104.325 1.08H108.925L94.365 29H89.245ZM116.82 13.6L114.86 7.4H114.62L110.3 29H106.18L111.78 1.08H116.58L122.02 16.48L123.98 22.68H124.22L128.54 1.08H132.66L127.06 29H122.26L116.82 13.6ZM132.636 29L138.236 1.08H155.316L154.516 4.92H141.796L140.196 13H151.556L150.796 16.84H139.436L137.756 25.16H151.036L150.276 29H132.636ZM169.128 4.92L164.288 29H159.968L164.768 4.92H156.768L157.528 1.08H177.888L177.128 4.92H169.128Z" fill="#F8F8F8"/>
<path d="M30.6985 13.2605L16.7781 0.202873C16.2598 -0.281329 15.4994 0.155505 15.4994 0.939702V27.0603C15.4994 27.8445 16.2598 28.2813 16.7781 27.7971L30.6985 14.7342C31.1005 14.3553 31.1005 13.6395 30.6985 13.2605ZM15.1991 13.2605L1.2787 0.202873C0.760439 -0.281329 0 0.155505 0 0.939702V27.0603C0 27.8445 0.760439 28.2813 1.2787 27.7971L15.1991 14.7342C15.3977 14.5447 15.4994 14.271 15.4994 13.9974C15.4994 13.7237 15.3977 13.45 15.1991 13.2605Z" fill="#F8F8F8"/>
</g>
<defs>
<clipPath id="clip0_8_20">
<rect width="178" height="28" fill="white"/>
</clipPath>
</defs>
</svg>
