<svg width="940" height="88" viewBox="0 0 940 88" fill="none" xmlns="http://www.w3.org/2000/svg">
<g clip-path="url(#clip0_1_2)">
<path d="M179.062 43.7699L107.853 0.0244751L93.7566 36.9362L33.6594 0.0244751L0.153442 87.7599L88.5159 50.628L74.3467 87.7599L179.062 43.7699Z" fill="black"/>
<path d="M345.184 20.648C345.184 22.0686 345.063 23.4158 344.821 24.665H217.323L221.205 0H314.784C332.18 0 345.16 5.53553 345.16 20.648H345.184Z" fill="black"/>
<path d="M509.171 24.6894H349.575L353.433 0.0244751H502.038L509.171 24.6894Z" fill="black"/>
<path d="M588.484 24.6894L592.002 2.27788L579.337 24.6894H533.918L547.481 0.0244751H640.377L661.245 24.6894H588.484Z" fill="black"/>
<path d="M723.675 0.0244751L719.763 24.6894H676.482L680.313 0.0244751H723.675Z" fill="black"/>
<path d="M939.894 0.0244751L936.231 24.567H723.893L727.749 0.0244751H939.894Z" fill="black"/>
<path d="M338.367 67.1119L336.499 78.9178C335.795 82.6898 336.038 84.9678 336.499 86.4374L336.304 87.7599H291.881C291.662 87.1722 291.662 86.0948 291.881 84.331L293.53 74.4354C295.059 65.1282 291.298 59.6906 279.143 59.6906H255.197L250.781 87.7599H207.424L216.28 31.3761H342.37C338.197 38.7242 329.875 42.8881 321.796 44.2597C333.49 47.4439 340.235 55.6982 338.391 67.1365L338.367 67.1119Z" fill="black"/>
<path d="M387.449 55.4533L386.285 62.9973H445.969L442.111 87.7599H339.992L340.089 87.0496C340.017 86.8786 339.944 86.658 339.871 86.4374L348.533 31.3761H449.802L445.969 55.4533H387.449Z" fill="black"/>
<path d="M340.114 87.0496L340.017 87.7599H339.676L339.871 86.4374C339.944 86.658 340.017 86.8786 340.09 87.0496H340.114Z" fill="black"/>
<path d="M575.552 31.3761L543.648 87.7599H481.61L463.801 31.3761H511.112L517.711 54.1306L530.23 31.3761H575.552Z" fill="black"/>
<path d="M718.723 31.3761L709.865 87.7599H666.441L628.81 43.8923L621.893 87.7599H578.561L587.441 31.3761H666.927L674.128 39.8754L675.442 31.3761H718.723Z" fill="black"/>
<path d="M761.761 55.4533L760.596 62.9973H820.285L816.423 87.7599H713.989L722.847 31.3761H824.141L820.285 55.4533H761.761Z" fill="black"/>
<path d="M898.6 31.3761L889.549 87.7599H846.218L855.244 31.3761H898.6Z" fill="black"/>
</g>
<defs>
<clipPath id="clip0_1_2">
<rect width="940" height="88" fill="white"/>
</clipPath>
</defs>
</svg>
