<svg width="1447" height="381" viewBox="0 0 1447 381" fill="none" xmlns="http://www.w3.org/2000/svg">
<g clip-path="url(#clip0_209_6)">
<path d="M155.991 186.567C158.541 188.569 158.541 192.431 155.991 194.433L8.58759 310.157C5.30666 312.733 0.500004 310.396 0.500004 306.224L0.500014 74.7756C0.500014 70.6043 5.30667 68.2669 8.5876 70.8428L155.991 186.567Z" fill="#030303"/>
<path d="M297.991 186.567C300.541 188.569 300.541 192.431 297.991 194.433L150.588 310.157C147.307 312.733 142.5 310.396 142.5 306.224L142.5 74.7756C142.5 70.6043 147.307 68.2669 150.588 70.8428L297.991 186.567Z" fill="#030303"/>
<path d="M441.44 194.39H404.81V299H379.4V68H457.94C507.11 68 524.6 100.67 524.6 131.36C524.6 159.41 510.08 188.45 470.48 193.73L532.19 299H502.82L441.44 194.39ZM498.86 131.36C498.86 109.25 484.01 93.08 457.94 93.08H404.81V169.97H457.94C484.01 169.97 498.86 153.47 498.86 131.36ZM593.658 194.72V273.92H699.588V299H568.248V68H699.588V93.08H593.658V169.64H699.588V194.72H593.658ZM814.095 263.69L877.125 68H902.865L828.615 299H799.575L725.325 68H751.065L814.095 263.69ZM1083.18 68V299H1057.77L959.429 117.17V299H934.019V68H959.429L1057.77 249.83V68H1083.18ZM1161.49 194.72V273.92H1267.42V299H1136.08V68H1267.42V93.08H1161.49V169.64H1267.42V194.72H1161.49ZM1354.87 93.08H1293.16V68H1441.99V93.08H1380.28V299H1354.87V93.08Z" fill="black"/>
</g>
<defs>
<clipPath id="clip0_209_6">
<rect width="1447" height="381" fill="white"/>
</clipPath>
</defs>
</svg>
